<svg width="77" height="30" viewBox="0 0 77 30" fill="none" xmlns="http://www.w3.org/2000/svg">
<path d="M13.28 29.4C10.7467 29.4 8.57333 28.9867 6.76 28.16C4.97333 27.3333 3.57333 26.12 2.56 24.52C1.57333 22.92 1.02667 20.9333 0.92 18.56C0.893333 17.4667 0.88 16.2933 0.88 15.04C0.88 13.7867 0.893333 12.5867 0.92 11.44C1.02667 9.12 1.58667 7.16 2.6 5.56C3.61333 3.93333 5.02667 2.70667 6.84 1.88C8.65333 1.02667 10.8 0.599998 13.28 0.599998C15.04 0.599998 16.6667 0.826665 18.16 1.28C19.6533 1.70667 20.96 2.34666 22.08 3.2C23.2 4.02667 24.0667 5.04 24.68 6.24C25.32 7.41333 25.6533 8.74667 25.68 10.24C25.7067 10.48 25.6267 10.68 25.44 10.84C25.28 11 25.08 11.08 24.84 11.08H19.44C19.0933 11.08 18.8267 11.0133 18.64 10.88C18.4533 10.72 18.2933 10.44 18.16 10.04C17.7867 8.62667 17.1733 7.66667 16.32 7.16C15.4933 6.62667 14.4667 6.36 13.24 6.36C11.7733 6.36 10.6133 6.77333 9.76 7.6C8.90667 8.4 8.44 9.74667 8.36 11.64C8.28 13.8267 8.28 16.0667 8.36 18.36C8.44 20.2533 8.90667 21.6133 9.76 22.44C10.6133 23.24 11.7733 23.64 13.24 23.64C14.4667 23.64 15.5067 23.3733 16.36 22.84C17.2133 22.3067 17.8133 21.3467 18.16 19.96C18.2667 19.56 18.4133 19.2933 18.6 19.16C18.8133 19 19.0933 18.92 19.44 18.92H24.84C25.08 18.92 25.28 19 25.44 19.16C25.6267 19.32 25.7067 19.52 25.68 19.76C25.6533 21.2533 25.32 22.6 24.68 23.8C24.0667 24.9733 23.2 25.9867 22.08 26.84C20.96 27.6667 19.6533 28.3067 18.16 28.76C16.6667 29.1867 15.04 29.4 13.28 29.4ZM30.2459 29C29.9526 29 29.7126 28.9067 29.5259 28.72C29.3393 28.5333 29.2459 28.2933 29.2459 28V22.92C29.2459 22.6533 29.3393 22.4267 29.5259 22.24C29.7126 22.0267 29.9526 21.92 30.2459 21.92H35.2859C35.5793 21.92 35.8193 22.0267 36.0059 22.24C36.2193 22.4267 36.3259 22.6533 36.3259 22.92V28C36.3259 28.2933 36.2193 28.5333 36.0059 28.72C35.8193 28.9067 35.5793 29 35.2859 29H30.2459ZM39.6531 29C39.4398 29 39.2398 28.92 39.0531 28.76C38.8931 28.5733 38.8131 28.3733 38.8131 28.16C38.8131 28.0267 38.8265 27.9067 38.8531 27.8L48.2531 2.12C48.3331 1.82667 48.4931 1.57333 48.7331 1.36C48.9998 1.12 49.3598 0.999998 49.8131 0.999998H55.7331C56.1865 0.999998 56.5331 1.12 56.7731 1.36C57.0398 1.57333 57.2131 1.82667 57.2931 2.12L66.6531 27.8C66.7065 27.9067 66.7331 28.0267 66.7331 28.16C66.7331 28.3733 66.6398 28.5733 66.4531 28.76C66.2931 28.92 66.0931 29 65.8531 29H60.9331C60.5331 29 60.2265 28.9067 60.0131 28.72C59.8265 28.5067 59.7065 28.32 59.6531 28.16L58.0931 24.08H47.4131L45.8931 28.16C45.8398 28.32 45.7198 28.5067 45.5331 28.72C45.3465 28.9067 45.0265 29 44.5731 29H39.6531ZM49.0531 18.32H56.4931L52.7331 7.76L49.0531 18.32ZM70.2459 29C69.9526 29 69.7126 28.9067 69.5259 28.72C69.3393 28.5333 69.2459 28.2933 69.2459 28V22.92C69.2459 22.6533 69.3393 22.4267 69.5259 22.24C69.7126 22.0267 69.9526 21.92 70.2459 21.92H75.2859C75.5793 21.92 75.8193 22.0267 76.0059 22.24C76.2193 22.4267 76.3259 22.6533 76.3259 22.92V28C76.3259 28.2933 76.2193 28.5333 76.0059 28.72C75.8193 28.9067 75.5793 29 75.2859 29H70.2459Z" fill="#294B67"/>
</svg>
